<?xml version="1.0" encoding="UTF-8"?>
<!-- Generator: Adobe Illustrator 17.1.0, SVG Export Plug-In . SVG Version: 6.00 Build 0)  -->
<!DOCTYPE svg PUBLIC "-//W3C//DTD SVG 1.1//EN" "http://www.w3.org/Graphics/SVG/1.1/DTD/svg11.dtd">
<svg version="1.1" id="Layer_1" xmlns="http://www.w3.org/2000/svg" xmlns:xlink="http://www.w3.org/1999/xlink" x="0px" y="0px" viewBox="0 0 95 94.8" enable-background="new 0 0 95 94.8" xml:space="preserve">
<g id="Group_4">
	<path id="Path_170" fill="#FFFFFF" d="M78.5,78.8h-1.6c-0.2,0-0.3-0.2-0.3-0.4c0-0.1,0.1-0.2,0.1-0.2l0.5-0.4   c0.4-0.3,0.9-0.5,1.4-0.5h1.6c0.2,0,0.3,0.2,0.3,0.4c0,0.1-0.1,0.2-0.1,0.2l-0.5,0.4C79.5,78.6,79,78.8,78.5,78.8"/>
	<path id="Path_171" fill="#FFFFFF" d="M80.6,76.6L79,76.7c-0.2,0-0.4-0.2-0.4-0.4c0-0.1,0-0.2,0.1-0.2l0.4-0.4   c0.4-0.4,0.8-0.6,1.3-0.6l1.6-0.1c0.2,0,0.4,0.2,0.4,0.4c0,0.1,0,0.2-0.1,0.3L81.9,76C81.6,76.3,81.1,76.5,80.6,76.6"/>
	<path id="Path_172" fill="#FFFFFF" d="M82.5,74.2l-1.6,0.2c-0.2,0-0.4-0.1-0.4-0.3c0-0.1,0-0.2,0.1-0.3l0.4-0.5   c0.3-0.4,0.8-0.6,1.3-0.7l1.6-0.2c0.2,0,0.4,0.1,0.4,0.3c0,0.1,0,0.2-0.1,0.3l-0.4,0.5C83.5,73.9,83,74.1,82.5,74.2"/>
	<path id="Path_173" fill="#FFFFFF" d="M84.3,71.7L82.7,72c-0.2,0-0.4-0.1-0.4-0.3c0-0.1,0-0.2,0.1-0.3l0.4-0.5   c0.3-0.4,0.7-0.7,1.2-0.8l1.6-0.3c0.2,0,0.4,0.1,0.4,0.3c0,0.1,0,0.2-0.1,0.3l-0.4,0.5C85.2,71.3,84.8,71.5,84.3,71.7"/>
	<path id="Path_174" fill="#FFFFFF" d="M85.9,69l-1.5,0.4c-0.2,0-0.4-0.1-0.4-0.3c0-0.1,0-0.2,0.1-0.3l0.3-0.5   c0.3-0.4,0.7-0.7,1.2-0.9l1.5-0.4c0.2,0,0.4,0.1,0.4,0.3c0,0.1,0,0.2-0.1,0.3l-0.3,0.5C86.8,68.5,86.4,68.9,85.9,69"/>
	<path id="Path_175" fill="#FFFFFF" d="M87.3,66.3l-1.5,0.5c-0.2,0.1-0.4-0.1-0.4-0.2c0-0.1,0-0.2,0-0.3l0.3-0.5   c0.2-0.4,0.6-0.8,1.1-1l1.5-0.5c0.2-0.1,0.4,0.1,0.4,0.2c0,0.1,0,0.2,0,0.3l-0.3,0.5C88.1,65.7,87.7,66.1,87.3,66.3"/>
	<path id="Path_176" fill="#FFFFFF" d="M88.5,63.4L87,64.1c-0.2,0.1-0.4,0-0.5-0.2c0-0.1,0-0.2,0-0.3l0.3-0.5c0.2-0.5,0.6-0.8,1.1-1   l1.5-0.7c0.2-0.1,0.4,0,0.5,0.2c0,0.1,0,0.2,0,0.3l-0.3,0.6C89.3,62.8,88.9,63.2,88.5,63.4"/>
	<path id="Path_177" fill="#FFFFFF" d="M89.5,60.5L88,61.3c-0.2,0.1-0.4,0-0.5-0.2c0-0.1,0-0.2,0-0.3l0.2-0.6c0.2-0.5,0.5-0.9,1-1.1   l1.4-0.8c0.2-0.1,0.4,0,0.5,0.2c0,0.1,0,0.2,0,0.3l-0.2,0.6C90.3,59.9,89.9,60.3,89.5,60.5"/>
	<path id="Path_178" fill="#FFFFFF" d="M90.3,57.5l-1.4,0.9c-0.2,0.1-0.4,0-0.5-0.2c0-0.1,0-0.2,0-0.3l0.2-0.6   c0.1-0.5,0.5-0.9,0.9-1.2l1.4-0.8c0.2-0.1,0.4,0,0.5,0.1c0,0.1,0.1,0.2,0,0.3l-0.2,0.6C91,56.8,90.7,57.3,90.3,57.5"/>
	<path id="Path_179" fill="#FFFFFF" d="M90.8,54.5l-1.3,0.9c-0.2,0.1-0.4,0.1-0.5-0.1c0-0.1-0.1-0.2,0-0.3l0.1-0.6   c0.1-0.5,0.4-0.9,0.8-1.2l1.3-0.9c0.2-0.1,0.4-0.1,0.5,0.1c0,0.1,0.1,0.2,0,0.3l-0.1,0.6C91.5,53.8,91.3,54.2,90.8,54.5"/>
	<path id="Path_180" fill="#FFFFFF" d="M91.2,51.4l-1.2,1c-0.2,0.1-0.4,0.1-0.5-0.1c-0.1-0.1-0.1-0.2-0.1-0.3l0.1-0.6   c0.1-0.5,0.3-1,0.7-1.3l1.2-1c0.2-0.1,0.4-0.1,0.5,0.1c0.1,0.1,0.1,0.2,0.1,0.3l-0.1,0.6C91.9,50.6,91.6,51.1,91.2,51.4"/>
	<path id="Path_181" fill="#FFFFFF" d="M91.4,48.4l-1.2,1.1c-0.2,0.1-0.4,0.1-0.5,0c-0.1-0.1-0.1-0.2-0.1-0.3l0.1-0.6   c0-0.5,0.3-1,0.6-1.3l1.2-1.1c0.2-0.1,0.4-0.1,0.5,0c0.1,0.1,0.1,0.2,0.1,0.3L92,47C92,47.5,91.7,48,91.4,48.4"/>
	<path id="Path_182" fill="#FFFFFF" d="M91.3,45.3l-1.1,1.2c-0.1,0.1-0.4,0.1-0.5,0c-0.1-0.1-0.1-0.2-0.1-0.3l0-0.6   c0-0.5,0.2-1,0.5-1.4l1.1-1.2c0.1-0.1,0.4-0.1,0.5,0c0.1,0.1,0.1,0.2,0.1,0.3l0,0.6C91.8,44.4,91.7,44.9,91.3,45.3"/>
	<path id="Path_183" fill="#FFFFFF" d="M91,42.2l-1,1.3c-0.1,0.1-0.4,0.2-0.5,0c-0.1-0.1-0.1-0.2-0.1-0.2l0-0.6c0-0.5,0.1-1,0.4-1.4   l1-1.3c0.1-0.1,0.4-0.2,0.5,0c0.1,0.1,0.1,0.2,0.1,0.2l0,0.6C91.5,41.3,91.4,41.8,91,42.2"/>
	<path id="Path_184" fill="#FFFFFF" d="M90.6,39.2l-0.9,1.3c-0.1,0.2-0.3,0.2-0.5,0.1c-0.1-0.1-0.1-0.1-0.1-0.2L89,39.7   c-0.1-0.5,0.1-1,0.3-1.4l0.9-1.3c0.1-0.2,0.3-0.2,0.5-0.1c0.1,0.1,0.1,0.1,0.1,0.2l0.1,0.6C91,38.2,90.8,38.7,90.6,39.2"/>
	<path id="Path_185" fill="#FFFFFF" d="M89.9,36.2l-0.8,1.4c-0.1,0.2-0.3,0.2-0.5,0.1c-0.1-0.1-0.1-0.1-0.1-0.2l-0.1-0.6   c-0.1-0.5,0-1,0.2-1.5l0.8-1.4c0.1-0.2,0.3-0.2,0.5-0.1c0.1,0.1,0.1,0.1,0.2,0.2l0.1,0.6C90.2,35.2,90.1,35.7,89.9,36.2"/>
	<path id="Path_186" fill="#FFFFFF" d="M89,33.2l-0.7,1.4c-0.1,0.2-0.3,0.2-0.5,0.1c-0.1,0-0.1-0.1-0.2-0.2L87.5,34   c-0.1-0.5-0.1-1,0.1-1.5l0.7-1.4c0.1-0.2,0.3-0.2,0.5-0.1c0.1,0,0.1,0.1,0.2,0.2l0.2,0.6C89.2,32.2,89.2,32.7,89,33.2"/>
	<path id="Path_187" fill="#FFFFFF" d="M87.9,30.3l-0.6,1.5C87.2,32,87,32.1,86.8,32c-0.1,0-0.2-0.1-0.2-0.2l-0.2-0.6   c-0.2-0.5-0.2-1,0-1.5l0.6-1.5c0.1-0.2,0.3-0.2,0.5-0.2c0.1,0,0.2,0.1,0.2,0.2l0.2,0.6C88.1,29.3,88,29.9,87.9,30.3"/>
	<path id="Path_188" fill="#FFFFFF" d="M86.5,27.5L86,29.1c-0.1,0.2-0.3,0.3-0.5,0.2c-0.1,0-0.2-0.1-0.2-0.2l-0.2-0.6   c-0.2-0.5-0.2-1-0.1-1.5l0.5-1.5c0.1-0.2,0.3-0.3,0.5-0.2c0.1,0,0.2,0.1,0.2,0.2l0.2,0.6C86.7,26.5,86.7,27,86.5,27.5"/>
	<path id="Path_189" fill="#FFFFFF" d="M85,24.8l-0.4,1.6c-0.1,0.2-0.3,0.3-0.4,0.2c-0.1,0-0.2-0.1-0.2-0.2l-0.3-0.5   c-0.2-0.5-0.3-1-0.2-1.5l0.4-1.6c0.1-0.2,0.3-0.3,0.5-0.2c0.1,0,0.2,0.1,0.2,0.2l0.3,0.5C85.1,23.8,85.2,24.4,85,24.8"/>
	<path id="Path_190" fill="#FFFFFF" d="M83.4,22.3l-0.3,1.6c0,0.2-0.2,0.3-0.4,0.3c-0.1,0-0.2-0.1-0.2-0.2l-0.3-0.5   c-0.3-0.4-0.4-1-0.3-1.5l0.3-1.6c0-0.2,0.2-0.3,0.4-0.3c0.1,0,0.2,0.1,0.2,0.2l0.3,0.5C83.4,21.2,83.5,21.8,83.4,22.3"/>
	<path id="Path_191" fill="#FFFFFF" d="M81.5,19.8l-0.2,1.6c0,0.2-0.2,0.3-0.4,0.3c-0.1,0-0.2-0.1-0.2-0.1L80.4,21   c-0.3-0.4-0.4-0.9-0.4-1.4l0.2-1.6c0-0.2,0.2-0.3,0.4-0.3c0.1,0,0.2,0.1,0.2,0.1l0.4,0.5C81.4,18.8,81.6,19.3,81.5,19.8"/>
	<path id="Path_192" fill="#FFFFFF" d="M79.5,17.5l-0.1,1.6c0,0.2-0.2,0.3-0.4,0.3c-0.1,0-0.2-0.1-0.2-0.1l-0.4-0.5   c-0.3-0.4-0.5-0.9-0.5-1.4l0.1-1.6c0-0.2,0.2-0.3,0.4-0.3c0.1,0,0.2,0.1,0.2,0.1l0.4,0.5C79.3,16.5,79.5,17,79.5,17.5"/>
	<path id="Path_193" fill="#FFFFFF" d="M77.3,15.3l0.1,1.6c0,0.2-0.2,0.3-0.4,0.3c-0.1,0-0.2,0-0.2-0.1l-0.4-0.4   c-0.3-0.4-0.6-0.9-0.6-1.4l-0.1-1.6c0-0.2,0.2-0.4,0.4-0.3c0.1,0,0.2,0,0.2,0.1l0.4,0.4C77.1,14.3,77.3,14.8,77.3,15.3"/>
	<path id="Path_194" fill="#FFFFFF" d="M75,13.3l0.2,1.6c0,0.2-0.1,0.4-0.3,0.4c-0.1,0-0.2,0-0.3-0.1l-0.4-0.4   c-0.4-0.3-0.6-0.8-0.7-1.3l-0.2-1.6c0-0.2,0.1-0.4,0.3-0.4c0.1,0,0.2,0,0.3,0.1l0.4,0.4C74.7,12.3,74.9,12.8,75,13.3"/>
	<path id="Path_195" fill="#FFFFFF" d="M72.5,11.4l0.3,1.6c0,0.2-0.1,0.4-0.3,0.4c-0.1,0-0.2,0-0.3-0.1l-0.5-0.4   c-0.4-0.3-0.7-0.8-0.8-1.3l-0.3-1.6c0-0.2,0.1-0.4,0.3-0.4c0.1,0,0.2,0,0.3,0.1l0.5,0.4C72.1,10.5,72.4,10.9,72.5,11.4"/>
	<path id="Path_196" fill="#FFFFFF" d="M69.9,9.8l0.4,1.6c0,0.2-0.1,0.4-0.3,0.4c-0.1,0-0.2,0-0.3-0.1l-0.5-0.4   c-0.4-0.3-0.7-0.7-0.8-1.2L68,8.5c0-0.2,0.1-0.4,0.3-0.4c0.1,0,0.2,0,0.3,0.1l0.5,0.4C69.5,8.8,69.8,9.3,69.9,9.8"/>
	<path id="Path_197" fill="#FFFFFF" d="M67.2,8.3l0.5,1.5c0,0.2-0.1,0.4-0.3,0.4c-0.1,0-0.2,0-0.3,0l-0.5-0.3   c-0.4-0.3-0.8-0.7-0.9-1.2l-0.5-1.5c0-0.2,0.1-0.4,0.3-0.4c0.1,0,0.2,0,0.3,0l0.5,0.3C66.7,7.4,67.1,7.8,67.2,8.3"/>
	<path id="Path_198" fill="#FFFFFF" d="M64.4,7L65,8.4c0.1,0.2,0,0.4-0.2,0.4c-0.1,0-0.2,0-0.3,0L64,8.6c-0.5-0.2-0.8-0.6-1-1.1   L62.4,6c-0.1-0.2,0-0.4,0.2-0.4c0.1,0,0.2,0,0.3,0l0.5,0.3C63.9,6.1,64.2,6.5,64.4,7"/>
	<path id="Path_199" fill="#FFFFFF" d="M61.5,5.9l0.7,1.4c0.1,0.2,0,0.4-0.2,0.5c-0.1,0-0.2,0-0.3,0l-0.6-0.2   c-0.5-0.2-0.9-0.6-1.1-1l-0.7-1.4c-0.1-0.2,0-0.4,0.2-0.5c0.1,0,0.2,0,0.3,0l0.6,0.2C60.9,5,61.3,5.4,61.5,5.9"/>
	<path id="Path_200" fill="#FFFFFF" d="M58.6,5l0.8,1.4c0.1,0.2,0,0.4-0.2,0.5c-0.1,0-0.2,0-0.3,0l-0.6-0.2   c-0.5-0.2-0.9-0.5-1.1-0.9l-0.8-1.4c-0.1-0.2,0-0.4,0.2-0.5c0.1,0,0.2,0,0.3,0L57.4,4C57.9,4.2,58.3,4.5,58.6,5"/>
	<path id="Path_201" fill="#FFFFFF" d="M55.6,4.3l0.9,1.3c0.1,0.2,0,0.4-0.1,0.5c-0.1,0-0.2,0.1-0.3,0L55.5,6   c-0.5-0.1-0.9-0.4-1.2-0.9l-0.9-1.3c-0.1-0.2,0-0.4,0.1-0.5c0.1,0,0.2-0.1,0.3,0l0.6,0.2C54.9,3.5,55.3,3.8,55.6,4.3"/>
	<path id="Path_202" fill="#FFFFFF" d="M52.5,3.8l1,1.3c0.1,0.2,0.1,0.4-0.1,0.5c-0.1,0.1-0.2,0.1-0.3,0.1l-0.6-0.1   c-0.5-0.1-1-0.4-1.3-0.8l-1-1.3c-0.1-0.2-0.1-0.4,0.1-0.5c0.1-0.1,0.2-0.1,0.3-0.1L51.3,3C51.8,3.1,52.2,3.4,52.5,3.8"/>
	<path id="Path_203" fill="#FFFFFF" d="M49.5,3.5l1.1,1.2c0.1,0.2,0.1,0.4-0.1,0.5c-0.1,0.1-0.2,0.1-0.3,0.1l-0.6-0.1   c-0.5-0.1-1-0.3-1.3-0.7l-1.1-1.2c-0.1-0.2-0.1-0.4,0.1-0.5c0.1-0.1,0.2-0.1,0.3-0.1l0.6,0.1C48.7,2.9,49.1,3.1,49.5,3.5"/>
	<path id="Path_204" fill="#FFFFFF" d="M46.4,3.5l1.2,1.1c0.1,0.1,0.1,0.4,0,0.5c-0.1,0.1-0.2,0.1-0.3,0.1l-0.6,0   c-0.5,0-1-0.2-1.4-0.6l-1.2-1.1c-0.1-0.1-0.1-0.4,0-0.5c0.1-0.1,0.2-0.1,0.3-0.1l0.6,0C45.5,2.9,46,3.1,46.4,3.5"/>
	<path id="Path_205" fill="#FFFFFF" d="M43.3,3.6l1.2,1c0.1,0.1,0.1,0.4,0,0.5c-0.1,0.1-0.2,0.1-0.2,0.1l-0.6,0   c-0.5,0-1-0.2-1.4-0.5l-1.2-1c-0.1-0.1-0.1-0.4,0-0.5c0.1-0.1,0.2-0.1,0.3-0.1l0.6,0C42.4,3.1,42.9,3.3,43.3,3.6"/>
	<path id="Path_206" fill="#FFFFFF" d="M40.2,4L41.5,5c0.1,0.1,0.2,0.4,0,0.5c-0.1,0.1-0.1,0.1-0.2,0.1l-0.6,0.1   c-0.5,0-1-0.1-1.4-0.4L38,4.3c-0.2-0.1-0.2-0.4,0-0.5c0.1-0.1,0.1-0.1,0.2-0.1l0.6-0.1C39.3,3.6,39.8,3.7,40.2,4"/>
	<path id="Path_207" fill="#FFFFFF" d="M37.2,4.6l1.4,0.8c0.2,0.1,0.2,0.3,0.1,0.5c-0.1,0.1-0.1,0.1-0.2,0.1l-0.6,0.1   c-0.5,0.1-1,0-1.5-0.3L35,5.1c-0.2-0.1-0.2-0.3-0.1-0.5c0.1-0.1,0.1-0.1,0.2-0.1l0.6-0.1C36.3,4.2,36.8,4.3,37.2,4.6"/>
	<path id="Path_208" fill="#FFFFFF" d="M34.2,5.4l1.4,0.8c0.2,0.1,0.2,0.3,0.1,0.5c-0.1,0.1-0.1,0.1-0.2,0.2L35,6.9   c-0.5,0.1-1,0.1-1.5-0.2L32.1,6c-0.2-0.1-0.2-0.3-0.1-0.5c0.1-0.1,0.1-0.1,0.2-0.2l0.6-0.1C33.3,5.1,33.8,5.2,34.2,5.4"/>
	<path id="Path_209" fill="#FFFFFF" d="M31.3,6.4l1.5,0.6C33,7.2,33,7.4,32.9,7.6c0,0.1-0.1,0.1-0.2,0.2l-0.6,0.2   c-0.5,0.2-1,0.1-1.5-0.1l-1.5-0.7C29,7.1,29,6.9,29,6.7c0-0.1,0.1-0.1,0.2-0.2l0.6-0.2C30.3,6.2,30.9,6.2,31.3,6.4"/>
	<path id="Path_210" fill="#FFFFFF" d="M28.5,7.6L30,8.2c0.2,0.1,0.3,0.3,0.2,0.5c0,0.1-0.1,0.2-0.2,0.2L29.4,9   c-0.5,0.2-1,0.2-1.5,0l-1.5-0.5c-0.2-0.1-0.3-0.3-0.2-0.5c0-0.1,0.1-0.2,0.2-0.2L27,7.6C27.5,7.5,28,7.5,28.5,7.6"/>
	<path id="Path_211" fill="#FFFFFF" d="M25.7,9l1.5,0.4c0.2,0.1,0.3,0.3,0.2,0.5c0,0.1-0.1,0.2-0.2,0.2l-0.6,0.3   c-0.5,0.2-1,0.3-1.5,0.1l-1.5-0.4c-0.2-0.1-0.3-0.3-0.2-0.5c0-0.1,0.1-0.2,0.2-0.2l0.6-0.3C24.7,8.9,25.2,8.9,25.7,9"/>
	<path id="Path_212" fill="#FFFFFF" d="M23.1,10.6l1.6,0.3c0.2,0.1,0.3,0.3,0.2,0.4c0,0.1-0.1,0.2-0.2,0.2l-0.5,0.3   c-0.4,0.2-1,0.3-1.5,0.2l-1.6-0.3c-0.2-0.1-0.3-0.3-0.2-0.4c0-0.1,0.1-0.2,0.2-0.2l0.5-0.3C22.1,10.6,22.6,10.5,23.1,10.6"/>
	<path id="Path_213" fill="#FFFFFF" d="M20.6,12.4l1.6,0.2c0.2,0,0.3,0.2,0.3,0.4c0,0.1-0.1,0.2-0.2,0.2l-0.5,0.3   c-0.4,0.3-0.9,0.4-1.4,0.3l-1.6-0.2c-0.2,0-0.3-0.2-0.3-0.4c0-0.1,0.1-0.2,0.2-0.2l0.5-0.3C19.6,12.4,20.1,12.3,20.6,12.4"/>
	<path id="Path_214" fill="#FFFFFF" d="M18.2,14.3l1.6,0.1c0.2,0,0.3,0.2,0.3,0.4c0,0.1-0.1,0.2-0.1,0.2l-0.5,0.4   c-0.4,0.3-0.9,0.5-1.4,0.4l-1.6-0.1c-0.2,0-0.3-0.2-0.3-0.4c0-0.1,0.1-0.2,0.1-0.2l0.5-0.4C17.2,14.4,17.7,14.3,18.2,14.3"/>
	<path id="Path_215" fill="#FFFFFF" d="M15.9,16.4h1.6c0.2,0,0.3,0.2,0.3,0.4c0,0.1-0.1,0.2-0.1,0.2l-0.5,0.4   c-0.4,0.3-0.9,0.5-1.4,0.5h-1.6c-0.2,0-0.3-0.2-0.3-0.4c0-0.1,0.1-0.2,0.1-0.2l0.5-0.4C14.9,16.6,15.4,16.4,15.9,16.4"/>
	<path id="Path_216" fill="#FFFFFF" d="M13.8,18.7l1.6-0.1c0.2,0,0.4,0.2,0.4,0.4c0,0.1,0,0.2-0.1,0.2l-0.4,0.4   c-0.4,0.4-0.8,0.6-1.3,0.6l-1.6,0.1c-0.2,0-0.4-0.2-0.3-0.4c0-0.1,0-0.2,0.1-0.2l0.4-0.4C12.8,19,13.3,18.7,13.8,18.7"/>
	<path id="Path_217" fill="#FFFFFF" d="M11.9,21.1l1.6-0.2c0.2,0,0.4,0.1,0.4,0.3c0,0.1,0,0.2-0.1,0.3l-0.4,0.5   c-0.3,0.4-0.8,0.6-1.3,0.7l-1.6,0.2c-0.2,0-0.4-0.1-0.4-0.3c0-0.1,0-0.2,0.1-0.3l0.4-0.5C10.9,21.4,11.4,21.2,11.9,21.1"/>
	<path id="Path_218" fill="#FFFFFF" d="M10.1,23.6l1.6-0.3c0.2,0,0.4,0.1,0.4,0.3c0,0.1,0,0.2-0.1,0.3l-0.4,0.5   c-0.3,0.4-0.8,0.7-1.2,0.8l-1.6,0.3c-0.2,0-0.4-0.1-0.4-0.3c0-0.1,0-0.2,0.1-0.3l0.4-0.5C9.2,24,9.6,23.7,10.1,23.6"/>
	<path id="Path_219" fill="#FFFFFF" d="M8.5,26.3l1.5-0.4c0.2,0,0.4,0.1,0.4,0.3c0,0.1,0,0.2-0.1,0.3l-0.3,0.5   c-0.3,0.4-0.7,0.7-1.2,0.9l-1.5,0.4c-0.2,0-0.4-0.1-0.4-0.3c0-0.1,0-0.2,0.1-0.3l0.3-0.5C7.6,26.7,8,26.4,8.5,26.3"/>
	<path id="Path_220" fill="#FFFFFF" d="M7.1,29l1.5-0.5c0.2-0.1,0.4,0.1,0.4,0.3c0,0.1,0,0.2,0,0.3l-0.3,0.5c-0.2,0.4-0.6,0.8-1.1,1   L6.1,31c-0.2,0.1-0.4-0.1-0.4-0.2c0-0.1,0-0.2,0-0.3L6,30C6.3,29.5,6.7,29.2,7.1,29"/>
	<path id="Path_221" fill="#FFFFFF" d="M5.9,31.8l1.5-0.7c0.2-0.1,0.4,0,0.5,0.2c0,0.1,0,0.2,0,0.3l-0.3,0.6c-0.2,0.5-0.6,0.8-1.1,1   l-1.5,0.7c-0.2,0.1-0.4,0-0.5-0.2c0-0.1,0-0.2,0-0.3l0.3-0.6C5.1,32.4,5.5,32.1,5.9,31.8"/>
	<path id="Path_222" fill="#FFFFFF" d="M4.9,34.8L6.4,34c0.2-0.1,0.4,0,0.5,0.2c0,0.1,0,0.2,0,0.3L6.6,35c-0.2,0.5-0.5,0.9-1,1.1   l-1.4,0.8c-0.2,0.1-0.4,0-0.5-0.2c0-0.1,0-0.2,0-0.3L4,35.9C4.1,35.4,4.5,35,4.9,34.8"/>
	<path id="Path_223" fill="#FFFFFF" d="M4.1,37.7l1.4-0.9c0.2-0.1,0.4,0,0.5,0.2c0,0.1,0,0.2,0,0.3l-0.2,0.6   c-0.1,0.5-0.5,0.9-0.9,1.2l-1.4,0.8c-0.2,0.1-0.4,0-0.5-0.1c0-0.1-0.1-0.2,0-0.3l0.2-0.6C3.4,38.4,3.7,38,4.1,37.7"/>
	<path id="Path_224" fill="#FFFFFF" d="M3.6,40.8l1.3-0.9c0.2-0.1,0.4-0.1,0.5,0.1c0,0.1,0.1,0.2,0,0.3l-0.1,0.6   c-0.1,0.5-0.4,0.9-0.8,1.2L3.1,43C3,43.1,2.7,43,2.6,42.9c-0.1-0.1-0.1-0.2,0-0.3L2.7,42C2.9,41.5,3.1,41.1,3.6,40.8"/>
	<path id="Path_225" fill="#FFFFFF" d="M3.2,43.8l1.2-1c0.2-0.1,0.4-0.1,0.5,0.1C5,43,5,43,5,43.1l-0.1,0.6c-0.1,0.5-0.3,1-0.7,1.3   l-1.2,1c-0.2,0.1-0.4,0.1-0.5-0.1c-0.1-0.1-0.1-0.2-0.1-0.3l0.1-0.6C2.5,44.6,2.8,44.2,3.2,43.8"/>
	<path id="Path_226" fill="#FFFFFF" d="M3,46.9l1.2-1.1c0.2-0.1,0.4-0.1,0.5,0c0.1,0.1,0.1,0.2,0.1,0.3l-0.1,0.6   c0,0.5-0.3,1-0.6,1.3l-1.2,1.1c-0.1,0.1-0.4,0.1-0.5,0C2.4,49,2.3,49,2.3,48.9l0.1-0.6C2.4,47.7,2.7,47.3,3,46.9"/>
	<path id="Path_227" fill="#FFFFFF" d="M3.1,50l1.1-1.2c0.1-0.1,0.4-0.1,0.5,0c0.1,0.1,0.1,0.2,0.1,0.2l0,0.6c0,0.5-0.2,1-0.5,1.4   l-1.1,1.2c-0.1,0.1-0.4,0.1-0.5,0c-0.1-0.1-0.1-0.2-0.1-0.3l0-0.6C2.5,50.9,2.7,50.4,3.1,50"/>
	<path id="Path_228" fill="#FFFFFF" d="M3.4,53.1l1-1.3c0.1-0.1,0.4-0.2,0.5,0C4.9,51.8,5,51.9,5,52l0,0.6c0,0.5-0.1,1-0.4,1.4   l-1,1.3c-0.1,0.1-0.4,0.2-0.5,0c-0.1-0.1-0.1-0.2-0.1-0.2l0-0.6C2.9,54,3,53.5,3.4,53.1"/>
	<path id="Path_229" fill="#FFFFFF" d="M3.8,56.1l0.9-1.3c0.1-0.2,0.3-0.2,0.5-0.1c0.1,0.1,0.1,0.1,0.1,0.2l0.1,0.6   c0.1,0.5-0.1,1-0.3,1.4l-0.9,1.3c-0.1,0.2-0.3,0.2-0.5,0.1c-0.1-0.1-0.1-0.1-0.1-0.2l-0.1-0.6C3.4,57,3.6,56.5,3.8,56.1"/>
	<path id="Path_230" fill="#FFFFFF" d="M4.5,59.1l0.8-1.4c0.1-0.2,0.3-0.2,0.5-0.1C5.9,57.7,6,57.8,6,57.9l0.1,0.6   c0.1,0.5,0,1-0.2,1.5l-0.8,1.4c-0.1,0.2-0.3,0.2-0.5,0.1c-0.1-0.1-0.1-0.1-0.1-0.2l-0.1-0.6C4.2,60.1,4.3,59.6,4.5,59.1"/>
	<path id="Path_231" fill="#FFFFFF" d="M5.4,62.1l0.7-1.4c0.1-0.2,0.3-0.2,0.5-0.1c0.1,0,0.1,0.1,0.2,0.2l0.2,0.6   c0.1,0.5,0.1,1-0.1,1.5l-0.7,1.4c-0.1,0.2-0.3,0.2-0.5,0.1c-0.1,0-0.1-0.1-0.2-0.2l-0.2-0.6C5.2,63,5.2,62.5,5.4,62.1"/>
	<path id="Path_232" fill="#FFFFFF" d="M6.5,64.9l0.6-1.5c0.1-0.2,0.3-0.2,0.5-0.2c0.1,0,0.2,0.1,0.2,0.2L8,64.1   c0.2,0.5,0.2,1,0,1.5L7.4,67c-0.1,0.2-0.3,0.2-0.5,0.2c-0.1,0-0.2-0.1-0.2-0.2l-0.2-0.6C6.4,65.9,6.4,65.4,6.5,64.9"/>
	<path id="Path_233" fill="#FFFFFF" d="M7.9,67.7l0.5-1.5C8.4,66,8.6,65.9,8.8,66C8.9,66,9,66.1,9,66.2l0.2,0.6   c0.2,0.5,0.2,1,0.1,1.5l-0.5,1.5C8.7,70,8.5,70,8.4,70c-0.1,0-0.2-0.1-0.2-0.2l-0.2-0.6C7.7,68.7,7.7,68.2,7.9,67.7"/>
	<path id="Path_234" fill="#FFFFFF" d="M9.4,70.4l0.4-1.6c0.1-0.2,0.3-0.3,0.4-0.2c0.1,0,0.2,0.1,0.2,0.2l0.3,0.5   c0.2,0.5,0.3,1,0.2,1.5l-0.4,1.6c-0.1,0.2-0.3,0.3-0.4,0.2c-0.1,0-0.2-0.1-0.2-0.2l-0.3-0.5C9.3,71.4,9.2,70.9,9.4,70.4"/>
	<path id="Path_235" fill="#FFFFFF" d="M11,73l0.3-1.6c0-0.2,0.2-0.3,0.4-0.3c0.1,0,0.2,0.1,0.2,0.2l0.3,0.5c0.3,0.4,0.4,1,0.3,1.5   l-0.3,1.6c0,0.2-0.2,0.3-0.4,0.3c-0.1,0-0.2-0.1-0.2-0.2l-0.3-0.5C11,74,10.9,73.5,11,73"/>
	<path id="Path_236" fill="#FFFFFF" d="M12.9,75.5l0.2-1.6c0-0.2,0.2-0.3,0.4-0.3c0.1,0,0.2,0.1,0.2,0.1l0.3,0.5   c0.3,0.4,0.4,0.9,0.4,1.4l-0.2,1.6c0,0.2-0.2,0.3-0.4,0.3c-0.1,0-0.2-0.1-0.2-0.1l-0.3-0.5C13,76.5,12.8,76,12.9,75.5"/>
	<path id="Path_237" fill="#FFFFFF" d="M14.9,77.8l0.1-1.6c0-0.2,0.2-0.3,0.4-0.3c0.1,0,0.2,0.1,0.2,0.1l0.4,0.5   c0.3,0.4,0.5,0.9,0.5,1.4l-0.1,1.6c0,0.2-0.2,0.3-0.4,0.3c-0.1,0-0.2-0.1-0.2-0.1l-0.4-0.5C15.1,78.8,14.9,78.3,14.9,77.8"/>
	<path id="Path_238" fill="#FFFFFF" d="M17.1,80L17,78.4c0-0.2,0.2-0.3,0.4-0.3c0.1,0,0.2,0,0.2,0.1l0.4,0.4   c0.3,0.4,0.6,0.9,0.6,1.4l0.1,1.6c0,0.2-0.2,0.3-0.4,0.3c-0.1,0-0.2,0-0.2-0.1l-0.4-0.4C17.3,81,17.1,80.5,17.1,80"/>
	<path id="Path_239" fill="#FFFFFF" d="M19.4,82l-0.2-1.6c0-0.2,0.1-0.4,0.3-0.4c0.1,0,0.2,0,0.3,0.1l0.4,0.4   c0.4,0.3,0.6,0.8,0.7,1.3l0.2,1.6c0,0.2-0.1,0.4-0.3,0.4c-0.1,0-0.2,0-0.3-0.1l-0.4-0.4C19.7,83,19.5,82.5,19.4,82"/>
	<path id="Path_240" fill="#FFFFFF" d="M21.9,83.8l-0.3-1.6c0-0.2,0.1-0.4,0.3-0.4c0.1,0,0.2,0,0.3,0.1l0.5,0.4   c0.4,0.3,0.7,0.8,0.8,1.3l0.3,1.6c0,0.2-0.1,0.4-0.3,0.4c-0.1,0-0.2,0-0.3-0.1l-0.5-0.4C22.3,84.8,22,84.3,21.9,83.8"/>
	<path id="Path_241" fill="#FFFFFF" d="M24.5,85.5L24.1,84c0-0.2,0.1-0.4,0.3-0.4c0.1,0,0.2,0,0.3,0.1l0.5,0.4   c0.4,0.3,0.7,0.7,0.8,1.2l0.4,1.6c0,0.2-0.1,0.4-0.3,0.4c-0.1,0-0.2,0-0.3-0.1l-0.5-0.3C24.9,86.4,24.6,86,24.5,85.5"/>
	<path id="Path_242" fill="#FFFFFF" d="M27.2,87l-0.5-1.5c0-0.2,0.1-0.4,0.3-0.4c0.1,0,0.2,0,0.3,0l0.5,0.3c0.4,0.3,0.8,0.7,0.9,1.2   l0.5,1.5c0,0.2-0.1,0.4-0.3,0.4c-0.1,0-0.2,0-0.3,0l-0.5-0.3C27.7,87.9,27.3,87.5,27.2,87"/>
	<path id="Path_243" fill="#FFFFFF" d="M30,88.3l-0.6-1.5c-0.1-0.2,0-0.4,0.2-0.4c0.1,0,0.2,0,0.3,0l0.5,0.3c0.5,0.2,0.8,0.6,1,1.1   l0.6,1.5c0.1,0.2,0,0.4-0.2,0.4c-0.1,0-0.2,0-0.3,0L31,89.4C30.5,89.2,30.2,88.8,30,88.3"/>
	<path id="Path_244" fill="#FFFFFF" d="M32.9,89.4L32.2,88c-0.1-0.2,0-0.4,0.2-0.5c0.1,0,0.2,0,0.3,0l0.6,0.2c0.5,0.2,0.9,0.6,1.1,1   l0.7,1.4c0.1,0.2,0,0.4-0.2,0.5c-0.1,0-0.2,0-0.3,0l-0.6-0.2C33.5,90.2,33.1,89.9,32.9,89.4"/>
	<path id="Path_245" fill="#FFFFFF" d="M35.8,90.3L35,88.9c-0.1-0.2,0-0.4,0.2-0.5c0.1,0,0.2,0,0.3,0l0.6,0.2   c0.5,0.2,0.9,0.5,1.1,0.9L38,91c0.1,0.2,0,0.4-0.2,0.5c-0.1,0-0.2,0-0.3,0L37,91.2C36.5,91.1,36.1,90.7,35.8,90.3"/>
	<path id="Path_246" fill="#FFFFFF" d="M38.8,91l-0.9-1.3c-0.1-0.2,0-0.4,0.1-0.5c0.1,0,0.2-0.1,0.3,0l0.6,0.2   c0.5,0.1,0.9,0.4,1.2,0.9l0.9,1.3c0.1,0.2,0,0.4-0.1,0.5c-0.1,0-0.2,0.1-0.3,0L40,91.9C39.5,91.7,39.1,91.4,38.8,91"/>
	<path id="Path_247" fill="#FFFFFF" d="M41.9,91.5l-1-1.3c-0.1-0.2-0.1-0.4,0.1-0.5c0.1-0.1,0.2-0.1,0.3-0.1l0.6,0.1   c0.5,0.1,1,0.4,1.3,0.8l1,1.3c0.1,0.2,0.1,0.4-0.1,0.5c-0.1,0.1-0.2,0.1-0.3,0.1l-0.6-0.1C42.6,92.2,42.2,91.9,41.9,91.5"/>
	<path id="Path_248" fill="#FFFFFF" d="M44.9,91.7l-1.1-1.2c-0.1-0.2-0.1-0.4,0.1-0.5C44,90,44.1,90,44.2,90l0.6,0.1   c0.5,0.1,1,0.3,1.3,0.7l1.1,1.2c0.1,0.2,0.1,0.4-0.1,0.5c-0.1,0.1-0.2,0.1-0.3,0.1l-0.6-0.1C45.7,92.4,45.3,92.1,44.9,91.7"/>
	<path id="Path_249" fill="#FFFFFF" d="M48,91.8l-1.2-1.1c-0.1-0.1-0.1-0.4,0-0.5c0.1-0.1,0.2-0.1,0.3-0.1l0.6,0   c0.5,0,1,0.2,1.4,0.6l1.2,1.1c0.1,0.1,0.1,0.4,0,0.5c-0.1,0.1-0.2,0.1-0.3,0.1l-0.6,0C48.9,92.4,48.4,92.1,48,91.8"/>
	<path id="Path_250" fill="#FFFFFF" d="M51.1,91.6l-1.2-1c-0.1-0.1-0.1-0.4,0-0.5C49.9,90,50,90,50.1,90l0.6,0c0.5,0,1,0.2,1.4,0.5   l1.2,1c0.1,0.1,0.1,0.4,0,0.5c-0.1,0.1-0.2,0.1-0.3,0.1l-0.6,0C52,92.1,51.5,92,51.1,91.6"/>
	<path id="Path_251" fill="#FFFFFF" d="M54.2,91.2l-1.3-0.9c-0.1-0.1-0.2-0.4,0-0.5c0.1-0.1,0.1-0.1,0.2-0.1l0.6-0.1   c0.5,0,1,0.1,1.4,0.4l1.3,0.9c0.1,0.1,0.2,0.3,0,0.5c-0.1,0.1-0.1,0.1-0.2,0.1l-0.6,0.1C55.1,91.7,54.6,91.5,54.2,91.2"/>
	<path id="Path_252" fill="#FFFFFF" d="M57.2,90.7l-1.4-0.9c-0.2-0.1-0.2-0.3-0.1-0.5c0.1-0.1,0.1-0.1,0.2-0.1l0.6-0.1   c0.5-0.1,1,0,1.5,0.3l1.4,0.9c0.2,0.1,0.2,0.3,0.1,0.5c-0.1,0.1-0.1,0.1-0.2,0.1l-0.6,0.1C58.1,91,57.6,90.9,57.2,90.7"/>
	<path id="Path_253" fill="#FFFFFF" d="M60.2,89.9l-1.4-0.8c-0.2-0.1-0.2-0.3-0.1-0.5c0.1-0.1,0.1-0.1,0.2-0.2l0.6-0.1   c0.5-0.1,1-0.1,1.5,0.2l1.4,0.8c0.2,0.1,0.2,0.3,0.1,0.5c-0.1,0.1-0.1,0.1-0.2,0.2L61.6,90C61.1,90.2,60.6,90.1,60.2,89.9"/>
	<path id="Path_254" fill="#FFFFFF" d="M63.1,88.8l-1.5-0.7c-0.2-0.1-0.2-0.3-0.1-0.5c0-0.1,0.1-0.1,0.2-0.2l0.6-0.2   c0.5-0.2,1-0.1,1.5,0.1l1.5,0.7c0.2,0.1,0.2,0.3,0.1,0.5c0,0.1-0.1,0.1-0.2,0.2l-0.6,0.2C64.1,89.1,63.5,89.1,63.1,88.8"/>
	<path id="Path_255" fill="#FFFFFF" d="M65.9,87.6l-1.5-0.6c-0.2-0.1-0.3-0.3-0.2-0.5c0-0.1,0.1-0.2,0.2-0.2l0.6-0.2   c0.5-0.2,1-0.2,1.5,0l1.5,0.5c0.2,0.1,0.3,0.3,0.2,0.5c0,0.1-0.1,0.2-0.2,0.2l-0.6,0.2C66.9,87.8,66.4,87.8,65.9,87.6"/>
	<path id="Path_256" fill="#FFFFFF" d="M68.7,86.2l-1.5-0.4c-0.2-0.1-0.3-0.3-0.2-0.5c0-0.1,0.1-0.2,0.2-0.2l0.6-0.3   c0.5-0.2,1-0.3,1.5-0.1l1.5,0.4c0.2,0.1,0.3,0.3,0.2,0.5c0,0.1-0.1,0.2-0.2,0.2l-0.6,0.3C69.7,86.3,69.2,86.4,68.7,86.2"/>
	<path id="Path_257" fill="#FFFFFF" d="M71.3,84.6l-1.6-0.3c-0.2-0.1-0.3-0.3-0.2-0.4c0-0.1,0.1-0.2,0.2-0.2l0.5-0.3   c0.4-0.2,1-0.3,1.5-0.2l1.6,0.3c0.2,0.1,0.3,0.3,0.2,0.4c0,0.1-0.1,0.2-0.2,0.2l-0.5,0.3C72.3,84.7,71.8,84.8,71.3,84.6"/>
	<path id="Path_258" fill="#FFFFFF" d="M73.8,82.9l-1.6-0.2c-0.2,0-0.3-0.2-0.3-0.4c0-0.1,0.1-0.2,0.2-0.2l0.5-0.3   c0.4-0.3,0.9-0.4,1.4-0.3l1.6,0.2c0.2,0,0.3,0.2,0.3,0.4c0,0.1-0.1,0.2-0.2,0.2l-0.5,0.3C74.8,82.8,74.3,82.9,73.8,82.9"/>
	<path id="Path_259" fill="#FFFFFF" d="M76.2,80.9l-1.6-0.1c-0.2,0-0.3-0.2-0.3-0.4c0-0.1,0.1-0.2,0.1-0.2l0.5-0.4   c0.4-0.3,0.9-0.5,1.4-0.4l1.6,0.1c0.2,0,0.3,0.2,0.3,0.4c0,0.1-0.1,0.2-0.1,0.2l-0.5,0.4C77.2,80.8,76.7,81,76.2,80.9"/>
	<path id="Path_260" fill="#FFFFFF" d="M43.1,12.9l2.6-1.8l-1-3l2.5,1.9L49.7,8l-1,3l2.6,1.9l-3.2,0l-1,3l-1-3L43.1,12.9z"/>
	<path id="Path_261" fill="#FFFFFF" d="M30.1,17.1l1.7-2.7L29.7,12l3.1,0.8l1.7-2.7l0.2,3.1l3.1,0.7l-2.9,1.2l0.3,3.2l-2-2.4   L30.1,17.1z"/>
	<path id="Path_262" fill="#FFFFFF" d="M19.7,26l0.5-3.1l-2.8-1.4l3.1-0.5l0.5-3.1l1.4,2.8l3.1-0.5l-2.2,2.2l1.4,2.8l-2.8-1.4   L19.7,26z"/>
	<path id="Path_263" fill="#FFFFFF" d="M13.5,38.1l-0.7-3.1l-3.2-0.2l2.7-1.6l-0.8-3.1l2.4,2.1l2.7-1.7l-1.2,2.9l2.4,2.1l-3.1-0.3   L13.5,38.1z"/>
	<path id="Path_264" fill="#FFFFFF" d="M12.4,51.8l-1.8-2.6l-3,1l1.9-2.5l-1.9-2.6l3,1l1.9-2.6l0,3.2l3,1l-3,1L12.4,51.8z"/>
	<path id="Path_265" fill="#FFFFFF" d="M16.7,64.8L14,63.1l-2.4,2.1l0.8-3.1l-2.7-1.7l3.1-0.2l0.7-3.1l1.2,2.9l3.2-0.3l-2.4,2   L16.7,64.8z"/>
	<path id="Path_266" fill="#FFFFFF" d="M25.5,75.1l-3.1-0.5L21,77.5l-0.5-3.1l-3.1-0.5l2.8-1.4l-0.5-3.1l2.2,2.2l2.8-1.5l-1.4,2.8   L25.5,75.1z"/>
	<path id="Path_267" fill="#FFFFFF" d="M37.7,81.3l-3.1,0.7l-0.2,3.2l-1.6-2.7l-3.1,0.8l2.1-2.4l-1.7-2.7l2.9,1.2L35,77l-0.3,3.1   L37.7,81.3z"/>
	<path id="Path_268" fill="#FFFFFF" d="M51.3,82.4l-2.6,1.8l1,3l-2.5-1.9l-2.6,1.9l1-3l-2.6-1.9l3.2,0l1-3l1,3L51.3,82.4z"/>
	<path id="Path_269" fill="#FFFFFF" d="M64.3,78.2l-1.7,2.7l2.1,2.4l-3.1-0.8L60,85.2l-0.2-3.1l-3.1-0.7l2.9-1.2L59.4,77l2,2.4   L64.3,78.2z"/>
	<path id="Path_270" fill="#FFFFFF" d="M74.7,69.3l-0.5,3.1l2.8,1.4l-3.1,0.5l-0.5,3.1L72,74.6l-3.1,0.5l2.2-2.2l-1.5-2.8l2.8,1.4   L74.7,69.3z"/>
	<path id="Path_271" fill="#FFFFFF" d="M80.9,57.1l0.7,3.1l3.2,0.2l-2.7,1.6l0.8,3.1l-2.4-2.1l-2.7,1.7l1.2-2.9l-2.4-2.1l3.1,0.3   L80.9,57.1z"/>
	<path id="Path_272" fill="#FFFFFF" d="M82,43.5l1.8,2.6l3-1L85,47.6l1.9,2.6l-3-1L82,51.8l0-3.2l-3-1l3-1L82,43.5z"/>
	<path id="Path_273" fill="#FFFFFF" d="M77.7,30.5l2.7,1.7l2.4-2.1l-0.8,3.1l2.7,1.7L81.7,35l-0.7,3.1l-1.2-2.9l-3.2,0.3l2.4-2   L77.7,30.5z"/>
	<path id="Path_274" fill="#FFFFFF" d="M68.9,20.1l3.1,0.5l1.4-2.8l0.5,3.1l3.1,0.5l-2.8,1.4l0.5,3.1l-2.2-2.2l-2.8,1.4l1.4-2.8   L68.9,20.1z"/>
	<path id="Path_275" fill="#FFFFFF" d="M56.7,13.9l3.1-0.7L60,10l1.6,2.7l3.1-0.8l-2.1,2.4l1.7,2.7l-2.9-1.2l-2.1,2.4l0.3-3.1   L56.7,13.9z"/>
	<path id="Path_276" fill="#FFFFFF" d="M47.2,77.6c-16.6,0-30-13.4-30-30c0-16.6,13.4-30,30-30c16.6,0,30,13.4,30,30c0,0,0,0,0,0   C77.2,64.2,63.8,77.6,47.2,77.6 M47.2,18.5c-16.1,0-29.1,13-29.1,29.1s13,29.1,29.1,29.1c16.1,0,29.1-13,29.1-29.1   C76.3,31.6,63.3,18.5,47.2,18.5"/>
	<path id="Path_277" fill="#FFFFFF" d="M44.5,64.6c-0.1,0.1-0.1,0.1-0.1,0.2c0,0.8,0.4,1.5,1.1,1.9c0.2,0.2,0.9,0.6,2.1,1.3   c0.8,0.4,0.7,1.1,0,2.1c0.2,0.2,0.3,0.4,0.5,0.5c0.6-0.4,1.1-1,1.4-1.7c0.5-1.1-0.1-1.9-1.9-2.6c-0.7-0.2-1.1-0.5-1.2-0.7   c-0.1-0.1,0-0.3,0.1-0.4C45.8,65,45.2,64.9,44.5,64.6"/>
	<path id="Path_278" fill="#FFFFFF" d="M47.6,65.3l-0.8-0.1c0,0.4,0.1,0.7,0.5,0.7C47.7,65.8,47.6,65.6,47.6,65.3"/>
	<path id="Path_279" fill="#FFFFFF" d="M46.4,44l0.2,10l1.3,0.4L48,44c1.1-0.4,1.7-1.7,1.3-2.9c-0.3-0.7-0.9-1.3-1.7-1.4   c-0.1,0-0.2,0-0.3,0h0c0,0-0.1,0-0.1,0c-0.2,0-0.4,0-0.6,0.1c0,0-0.1,0-0.1,0c-0.1,0-0.2,0.1-0.3,0.1l0,0c-1.1,0.6-1.5,2-0.9,3   C45.5,43.5,45.9,43.8,46.4,44"/>
	<path id="Path_280" fill="#FFFFFF" d="M47.8,57.3L46.6,57l0,1.7l1.1,0.3L47.8,57.3z"/>
	<path id="Path_281" fill="#FFFFFF" d="M49.3,55.4l-3.4-1c-1.4-0.3-2.7-1-3.8-1.9c-0.7-0.8-0.9-1.4-0.5-2c0.4-0.5,1.1-0.7,1.7-0.4   c1.8,0.5,2.7,0.5,2.7,0.1c-0.1-0.6-0.4-1.1-0.8-1.6c-0.6-0.6-1.4-1-2.3-1c-1.1,0.1-2.1,0.6-2.7,1.5c-0.9,1-1,2.5-0.4,3.7   c1.1,1.5,2.7,2.6,4.5,3.1l4.6,1.2c1.1,0.3,1.6,0.5,1.6,0.8c0,0.2-0.7,0.6-2.3,1.2c0.3,0.1,0.7,0.2,1,0.3c0.3,0.1,0.6,0.2,0.8,0.4   c0.3,0.1,0.5,0.2,0.6,0.3c0.9-0.3,1.7-1,2-2C52.7,57,51.7,56.1,49.3,55.4"/>
	<path id="Path_282" fill="#FFFFFF" d="M54.5,49.1c-0.6-0.9-1.6-1.4-2.7-1.5c-0.9,0-1.7,0.4-2.3,1c-0.4,0.4-0.7,1-0.8,1.6   c0,0.4,0.9,0.4,2.7-0.1c0.6-0.3,1.3-0.1,1.7,0.4c0.3,0.6,0.2,1.2-0.5,2c-1.1,0.9-2.4,1.6-3.8,1.9l-0.4,0.2c1.1,0.2,2.1,0.6,3.1,1   l0.1,0c1.4-0.5,2.6-1.5,3.5-2.7C55.5,51.6,55.3,50.1,54.5,49.1"/>
	<path id="Path_283" fill="#FFFFFF" d="M50.5,60.6c-1.2-0.7-2.4-1.2-3.7-1.5c-1.8-0.5-2.5-0.8-2.5-1.1c0-0.4,0.4-0.5,1.5-0.8   l0.5-0.1c-1-0.2-2-0.5-2.9-0.8c-1,0.6-1.4,1.2-1.3,1.9c0.3,1,1.1,1.7,2.1,2c1.4,0.5,2.7,1,3.8,1.3c1.2,0.3,1.6,0.6,1.6,0.9   c0,0.2-0.5,0.5-1.4,0.7c0.8,0,1.6,0.4,2.1,1c0.7-0.2,1.2-0.9,1.3-1.6C51.5,61.8,51.1,61,50.5,60.6"/>
	<path id="Path_284" fill="#FFFFFF" d="M46.8,71.3c-0.1,1.3,0.1,2.6,0.4,3.9c0.3-1.2,0.3-2.4,0.2-3.6L46.8,71.3z"/>
	<path id="Path_285" fill="#FFFFFF" d="M46.8,68l-0.2-0.1c-0.4-0.2-0.8-0.5-1.2-0.8c-0.5,0.4-0.7,1.2-0.3,1.7   c0.5,1.3,2.1,2.5,4.9,3.9C46.9,70.3,45.9,68.8,46.8,68"/>
	<path id="Path_286" fill="#FFFFFF" d="M47.2,69.6c0.4-0.5,0.6-1-0.2-1.4C47,68.6,46.6,69.1,47.2,69.6"/>
	<path id="Path_287" fill="#FFFFFF" d="M47.7,61.8l-1-0.3l0,1.4l0.9,0.2L47.7,61.8z"/>
	<path id="Path_288" fill="#FFFFFF" d="M47.6,63.4C45.9,63,45,62.7,45,62.4c0-0.3,0.2-0.3,0.7-0.6c0.3-0.2,0.6-0.3,0.9-0.4l-2.4-0.9   l-0.1,0.1c0,0,0,0,0,0c0,0,0,0,0,0C43.4,61,43,61.8,43,62.5c0,0.8,0.6,1.4,1.7,1.8c0.5,0.1,0.9,0.3,1.4,0.3l1.6,0.3   c0.5,0.1,0.7,0.3,0.6,0.6c0,0.1-0.2,0.3-0.4,0.4l0.4,0.1c0.1,0,0.2,0.1,0.3,0.1c0.1,0,0.2,0.1,0.3,0.2c0.1,0,0.2,0.1,0.2,0.1   c0.1,0.1,0.1,0.1,0.2,0.2c0.6-0.4,1-1.1,0.9-1.8C50.1,64.1,49.2,63.6,47.6,63.4"/>
	<path id="Path_289" fill="#FFFFFF" d="M41.8,32c0-1.9,1-3.7,2.7-4.7c-1.8,1.5-2.1,4.2-0.6,6.1c1.5,1.8,4.2,2.1,6.1,0.6   c1.8-1.5,2.1-4.2,0.6-6.1c-0.2-0.2-0.4-0.4-0.6-0.6c2.6,1.5,3.4,4.8,1.9,7.4s-4.8,3.4-7.4,1.9C42.8,35.7,41.8,33.9,41.8,32"/>
	<path id="Path_290" fill="#FFFFFF" d="M44.6,25.6l1.6-1.2l-0.6-1.9l1.6,1.1l1.6-1.2l-0.6,1.9l1.6,1.1l-2,0l-0.6,1.9l-0.6-1.9   L44.6,25.6z"/>
	<path id="Path_291" fill="#FFFFFF" d="M42.7,42.6c1.1-7.9-13.3-3.5-21.4-5c0.3,5.9,14.4,1.6,17.8,3C35.8,41,28.5,42,23.4,42.3   c0,5.3,13.4-0.9,16.2-0.1C35.5,43.7,31.3,45,27,46c1.9,4.9,10.4-2.3,12.8-2C37,45.8,34,47.4,31,48.8c2.7,2.4,7.2-2.1,8.7-2.9   c0.4-0.3,1-0.8,1.5-0.4l0,0c1.2,0.9,3.5,1.5,4.1,0.3C44.4,45.7,42.2,44.6,42.7,42.6"/>
	<path id="Path_292" fill="#FFFFFF" d="M51.7,42.6c-1.1-7.9,13.3-3.5,21.4-5c-0.3,5.9-14.4,1.6-17.8,3C58.6,41,65.9,42,71,42.3   c0,5.3-13.4-0.9-16.2-0.1c4.1,1.5,8.3,2.7,12.6,3.7c-1.9,4.9-10.4-2.3-12.8-2c2.8,1.8,5.8,3.5,8.9,4.9c-2.7,2.4-7.2-2.1-8.7-2.9   c-0.4-0.3-1-0.8-1.5-0.4l0,0c-1.2,0.9-3.5,1.5-4.1,0.3C50,45.7,52.2,44.6,51.7,42.6"/>
</g>
</svg>